HIERARCHY
ROOT root
{
	OFFSET	0	13.1	24.9
	CHANNELS 6  Xposition Yposition Zposition Xrotation Yrotation Zrotation
	JOINT spine_1
	{
		OFFSET	0	9.99999	0
		CHANNELS 3  Xrotation Yrotation Zrotation
		JOINT spine_2
		{
			OFFSET	0	112	-10
			CHANNELS 3  Xrotation Yrotation Zrotation
			JOINT spine_3
			{
				OFFSET	0	206.5	19.3
				CHANNELS 3  Xrotation Yrotation Zrotation
				JOINT spine_4
				{
					OFFSET	0	110.4	14.6
					CHANNELS 3  Xrotation Yrotation Zrotation
					JOINT neck_1
					{
						OFFSET	0	71.8	-50.3
						CHANNELS 3  Xrotation Yrotation Zrotation
						JOINT neck_2
						{
							OFFSET	0	86.2	-25.8
							CHANNELS 3  Xrotation Yrotation Zrotation
							JOINT head_ee
							{
								OFFSET	0	179.8	-8.7
								CHANNELS 3  Xrotation Yrotation Zrotation
								End Site
								{
									OFFSET	1	0	0
								}
							}
						}
					}
					JOINT left_clavicle
					{
						OFFSET	-43.2	22.4	-70.8
						CHANNELS 3  Xrotation Yrotation Zrotation
						JOINT left_shoulder
						{
							OFFSET	-93.9	-5.79999	48.7
							CHANNELS 3  Xrotation Yrotation Zrotation
							JOINT left_elbow
							{
								OFFSET	-291.4	-30.8	15.2
								CHANNELS 3  Xrotation Yrotation Zrotation
								JOINT left_lowarm_twist
								{
									OFFSET	-110.7	-3.89999	13.6
									CHANNELS 3  Xrotation Yrotation Zrotation
									JOINT left_hand
									{
										OFFSET	-110.7	-3.89999	13.6
										CHANNELS 3  Xrotation Yrotation Zrotation
										JOINT left_ee
										{
											OFFSET	-80.8	-5.10001	12.1
											CHANNELS 3  Xrotation Yrotation Zrotation
											End Site
											{
												OFFSET	1	0	0
											}
										}
									}
								}
							}
						}
					}
					JOINT right_clavicle
					{
						OFFSET	43.2	22.4	-70.8
						CHANNELS 3  Xrotation Yrotation Zrotation
						JOINT right_shoulder
						{
							OFFSET	93.9	-5.79999	48.7
							CHANNELS 3  Xrotation Yrotation Zrotation
							JOINT right_elbow
							{
								OFFSET	291.4	-30.8	15.2
								CHANNELS 3  Xrotation Yrotation Zrotation
								JOINT right_lowarm_twist
								{
									OFFSET	110.7	-3.89999	13.6
									CHANNELS 3  Xrotation Yrotation Zrotation
									JOINT right_hand
									{
										OFFSET	110.7	-3.89999	13.6
										CHANNELS 3  Xrotation Yrotation Zrotation
										JOINT right_ee
										{
											OFFSET	80.8	-5.10001	12.1
											CHANNELS 3  Xrotation Yrotation Zrotation
											End Site
											{
												OFFSET	1	0	0
											}
										}
									}
								}
							}
						}
					}
				}
			}
		}
	}
	JOINT left_hip
	{
		OFFSET	-82.8	-127.5	0.300001
		CHANNELS 3  Xrotation Yrotation Zrotation
		JOINT left_knee
		{
			OFFSET	-28.2	-396.7	2.2
			CHANNELS 3  Xrotation Yrotation Zrotation
			JOINT left_ankle
			{
				OFFSET	-11.7	-411.3	35.4
				CHANNELS 3  Xrotation Yrotation Zrotation
				JOINT left_toes
				{
					OFFSET	0	-60	-88.6
					CHANNELS 3  Xrotation Yrotation Zrotation
					JOINT left_foot_ee
					{
						OFFSET	-22.5	-16.5	-42.2
						CHANNELS 3  Xrotation Yrotation Zrotation
						End Site
						{
							OFFSET	1	0	0
						}
					}
				}
			}
		}
	}
	JOINT right_hip
	{
		OFFSET	82.8	-127.5	0.300001
		CHANNELS 3  Xrotation Yrotation Zrotation
		JOINT right_knee
		{
			OFFSET	28.2	-396.7	2.2
			CHANNELS 3  Xrotation Yrotation Zrotation
			JOINT right_ankle
			{
				OFFSET	11.7	-411.3	35.4
				CHANNELS 3  Xrotation Yrotation Zrotation
				JOINT right_toes
				{
					OFFSET	0	-60	-88.6
					CHANNELS 3  Xrotation Yrotation Zrotation
					JOINT right_foot_ee
					{
						OFFSET	22.5	-16.5	-42.2
						CHANNELS 3  Xrotation Yrotation Zrotation
						End Site
						{
							OFFSET	1	0	0
						}
					}
				}
			}
		}
	}
}
MOTION
Frames: 8
Frame Time: 0.02
3177.02 653.055 -1669.29 -0.350895575549 53.2760400883 -1.75886764432 -0.604936 1.33653 3.49644 -0.598822 1.11148 3.57427 -0.523468 0.302579 3.73065 -0.541789 0.887578 3.63627 -22.5772 19.0265 -1.06202 -25.4798 37.0847 9.09751 -0.0 0.0 -0.0 -3.12129 23.394 -1.57612 -24.5295 -12.9214 71.811 0.750423 -20.392 0.13497 22.9516 0.229937 -2.9033 -0.476185 28.6281 8.60288 -0.0 0.0 -0.0 14.4879 26.9824 -29.0215 7.20156 26.9506 -64.6537 2.32017 48.9677 -1.05669 35.561 0.138733 4.4685 4.69901 -7.06129 -36.0677 0.0 0.0 0.0 22.3063 -5.42732 -9.62955 -11.0658 0.295126 1.66996 20.3993 23.7794 -2.90194 -38.1918 0.0 0.0 -0.0 0.0 -0.0 -3.81746 31.0288 0.682038 -36.8903 0.280875 -5.55801 25.7547 -17.9175 3.48537 36.0676 -0.0 -0.0 0.0 0.0 0.0 
3157.87142339 649.467 -1670.16390715 1.0909543473 51.9473771139 -2.85858243236 -0.846542 1.39966 3.50316 -0.840481 1.17406 3.58499 -0.760381 0.345887 3.75623 -0.77885 0.934376 3.6547 -20.9944 18.7641 -1.81997 -23.565 36.9868 7.61398 -0.0 0.0 -0.0 -2.76153 24.3985 -0.88853 -24.0419 -12.5282 70.9932 0.882159 -23.6048 0.184335 22.8771 0.231082 -2.89385 -0.443923 28.5705 8.75732 -0.0 0.0 -0.0 14.5233 27.4111 -29.046 7.19087 27.3378 -64.9513 2.2145 47.642 -0.977778 36.1086 0.162483 4.53435 4.3545 -6.00938 -32.9163 0.0 0.0 0.0 22.7228 -5.47654 -9.75814 -18.1446 0.313107 2.75523 24.2959 19.0951 -3.32558 -38.0182 0.0 0.0 -0.0 0.0 -0.0 -7.23913 32.188 2.21319 -36.336 0.250272 -5.47853 24.2006 -18.4759 3.30642 36.7475 -0.0 -0.0 0.0 0.0 0.0 
3157.87151189 649.467 -1670.16584424 1.090813389 51.9415820351 -2.85840341811 -0.846542 1.39966 3.50316 -0.840481 1.17406 3.58499 -0.760381 0.345887 3.75623 -0.77885 0.934376 3.6547 -20.9944 18.7641 -1.81997 -23.565 36.9868 7.61398 -0.0 0.0 -0.0 -2.76153 24.3985 -0.88853 -24.0419 -12.5282 70.9932 0.882159 -23.6048 0.184335 22.8771 0.231082 -2.89385 -0.443923 28.5705 8.75732 -0.0 0.0 -0.0 14.5233 27.4111 -29.046 7.19087 27.3378 -64.9513 2.2145 47.642 -0.977778 36.1086 0.162483 4.53435 4.3545 -6.00938 -32.9163 0.0 0.0 0.0 22.7228 -5.47654 -9.75814 -18.1446 0.313107 2.75523 24.2959 19.0951 -3.32558 -38.0182 0.0 0.0 -0.0 0.0 -0.0 -7.23913 32.188 2.21319 -36.336 0.250272 -5.47853 24.2006 -18.4759 3.30642 36.7475 -0.0 -0.0 0.0 0.0 0.0 
3157.87094428 649.467 -1670.15334527 1.09172373896 51.9789739034 -2.85955929507 -0.846542 1.39966 3.50316 -0.840481 1.17406 3.58499 -0.760381 0.345887 3.75623 -0.77885 0.934376 3.6547 -20.9944 18.7641 -1.81997 -23.565 36.9868 7.61398 -0.0 0.0 -0.0 -2.76153 24.3985 -0.88853 -24.0419 -12.5282 70.9932 0.882159 -23.6048 0.184335 22.8771 0.231082 -2.89385 -0.443923 28.5705 8.75732 -0.0 0.0 -0.0 14.5233 27.4111 -29.046 7.19087 27.3378 -64.9513 2.2145 47.642 -0.977778 36.1086 0.162483 4.53435 4.3545 -6.00938 -32.9163 0.0 0.0 0.0 22.7228 -5.47654 -9.75814 -18.1446 0.313107 2.75523 24.2959 19.0951 -3.32558 -38.0182 0.0 0.0 -0.0 0.0 -0.0 -7.23913 32.188 2.21319 -36.336 0.250272 -5.47853 24.2006 -18.4759 3.30642 36.7475 -0.0 -0.0 0.0 0.0 0.0 
3095.95592263 656.872 -1656.38307707 2.53930148064 54.1248114158 -3.8689244192 -1.46958 0.843024 3.61779 -1.4625 0.611266 3.66401 -1.41606 -0.264053 3.7052 -1.43506 0.324017 3.70044 -18.9805 17.8407 -2.35294 -20.9538 35.5276 5.7979 -0.0 0.0 -0.0 -1.84078 23.6051 0.218979 -22.3729 -11.7577 70.5547 1.20316 -30.7943 0.331353 22.2406 0.240365 -2.81307 -0.473039 27.0278 8.01017 -0.0 0.0 -0.0 12.8953 27.6008 -25.2384 4.86026 29.3036 -66.1921 1.90926 43.3997 -0.759842 39.0977 0.303164 4.88967 3.89335 -3.28167 -28.3353 0.0 0.0 0.0 24.8193 -2.79616 -7.263 -28.0199 0.114799 4.25581 30.3732 12.2055 -3.95012 -37.2189 0.0 0.0 -0.0 0.0 -0.0 -12.3662 33.7086 3.15342 -34.23 0.141058 -5.17399 20.8962 -23.211 2.95774 34.3793 -0.0 -0.0 0.0 0.0 0.0 
3073.90916172 662.764 -1651.75338606 3.84791146522 56.4697600566 -5.00216036349 -1.89974 0.659207 3.65912 -1.89239 0.425195 3.69359 -1.85701 -0.480694 3.68679 -1.87596 0.107182 3.71641 -18.249 17.419 -3.59572 -20.0566 35.3814 4.17197 -0.0 0.0 -0.0 -0.742308 23.0943 1.65088 -21.3053 -10.9143 68.6242 1.30166 -32.8126 0.383272 20.8726 0.257275 -2.63916 -0.570162 26.8071 7.38454 -0.0 0.0 -0.0 12.4034 27.4651 -24.1281 2.52092 28.5715 -65.0492 1.80085 41.7318 -0.686496 42.3863 0.479165 5.27165 3.78438 -0.992714 -26.6201 0.0 0.0 0.0 23.9381 -3.28565 -5.1374 -29.1812 0.0745545 4.42949 31.4583 7.81785 -4.04403 -38.1431 0.0 0.0 -0.0 0.0 -0.0 -11.0923 35.1571 2.13454 -34.1512 0.137188 -5.16251 17.6899 -28.0378 2.60854 38.395 -0.0 -0.0 0.0 0.0 0.0 
3073.80482783 662.764 -1652.37828709 3.81315022685 56.1234721762 -4.96037627044 -1.89974 0.659207 3.65912 -1.89239 0.425195 3.69359 -1.85701 -0.480694 3.68679 -1.87596 0.107182 3.71641 -18.249 17.419 -3.59572 -20.0566 35.3814 4.17197 -0.0 0.0 -0.0 -0.742308 23.0943 1.65088 -21.3053 -10.9143 68.6242 1.30166 -32.8126 0.383272 20.8726 0.257275 -2.63916 -0.570162 26.8071 7.38454 -0.0 0.0 -0.0 12.4034 27.4651 -24.1281 2.52092 28.5715 -65.0492 1.80085 41.7318 -0.686496 42.3863 0.479165 5.27165 3.78438 -0.992714 -26.6201 0.0 0.0 0.0 23.9381 -3.28565 -5.1374 -29.1812 0.0745545 4.42949 31.4583 7.81785 -4.04403 -38.1431 0.0 0.0 -0.0 0.0 -0.0 -11.0923 35.1571 2.13454 -34.1512 0.137188 -5.16251 17.6899 -28.0378 2.60854 38.395 -0.0 -0.0 0.0 0.0 0.0 
3073.70305831 662.764 -1653.01156765 3.77873063532 55.772876917 -4.91883357365 -1.89974 0.659207 3.65912 -1.89239 0.425195 3.69359 -1.85701 -0.480694 3.68679 -1.87596 0.107182 3.71641 -18.249 17.419 -3.59572 -20.0566 35.3814 4.17197 -0.0 0.0 -0.0 -0.742308 23.0943 1.65088 -21.3053 -10.9143 68.6242 1.30166 -32.8126 0.383272 20.8726 0.257275 -2.63916 -0.570162 26.8071 7.38454 -0.0 0.0 -0.0 12.4034 27.4651 -24.1281 2.52092 28.5715 -65.0492 1.80085 41.7318 -0.686496 42.3863 0.479165 5.27165 3.78438 -0.992714 -26.6201 0.0 0.0 0.0 23.9381 -3.28565 -5.1374 -29.1812 0.0745545 4.42949 31.4583 7.81785 -4.04403 -38.1431 0.0 0.0 -0.0 0.0 -0.0 -11.0923 35.1571 2.13454 -34.1512 0.137188 -5.16251 17.6899 -28.0378 2.60854 38.395 -0.0 -0.0 0.0 0.0 0.0 
